<svg width="110" height="24" viewBox="0 0 110 24" fill="none" xmlns="http://www.w3.org/2000/svg">
<path d="M0.15625 11.8835V8.88352L12.1562 3.59943V7.05114L3.94034 10.3494L4.05114 10.1705V10.5966L3.94034 10.4176L12.1562 13.7159V17.1676L0.15625 11.8835ZM21.3842 19V1.54545H32.9411V4.58807H25.0746V8.74716H32.174V11.7898H25.0746V19H21.3842ZM40.3601 19.2557C39.0135 19.2557 37.8544 18.983 36.8828 18.4375C35.9169 17.8864 35.1726 17.108 34.6499 16.1023C34.1271 15.0909 33.8658 13.8949 33.8658 12.5142C33.8658 11.1676 34.1271 9.9858 34.6499 8.96875C35.1726 7.9517 35.9084 7.15909 36.8572 6.59091C37.8118 6.02273 38.9311 5.73864 40.2152 5.73864C41.0788 5.73864 41.8828 5.87784 42.6271 6.15625C43.3771 6.42898 44.0305 6.84091 44.5874 7.39205C45.1499 7.94318 45.5874 8.63636 45.8999 9.47159C46.2124 10.3011 46.3686 11.2727 46.3686 12.3864V13.3835H35.3146V11.1335H42.951C42.951 10.6108 42.8374 10.1477 42.6101 9.74432C42.3828 9.34091 42.0675 9.02557 41.6641 8.7983C41.2663 8.56534 40.8033 8.44886 40.2749 8.44886C39.7237 8.44886 39.2351 8.5767 38.8089 8.83239C38.3885 9.08239 38.0589 9.42045 37.8203 9.84659C37.5817 10.267 37.4595 10.7358 37.4538 11.2528V13.392C37.4538 14.0398 37.5732 14.5994 37.8118 15.071C38.0561 15.5426 38.3999 15.9062 38.843 16.1619C39.2862 16.4176 39.8118 16.5455 40.4197 16.5455C40.8232 16.5455 41.1925 16.4886 41.5277 16.375C41.8629 16.2614 42.1499 16.0909 42.3885 15.8636C42.6271 15.6364 42.8089 15.358 42.9339 15.0284L46.2919 15.25C46.1214 16.0568 45.772 16.7614 45.2436 17.3636C44.7209 17.9602 44.0447 18.4261 43.2152 18.7614C42.3913 19.0909 41.4396 19.2557 40.3601 19.2557ZM52.3686 1.54545V19H48.7379V1.54545H52.3686ZM55.277 19V5.90909H58.9077V19H55.277ZM57.1009 4.22159C56.5611 4.22159 56.098 4.04261 55.7116 3.68466C55.331 3.32102 55.1406 2.88636 55.1406 2.38068C55.1406 1.88068 55.331 1.4517 55.7116 1.09375C56.098 0.730113 56.5611 0.548295 57.1009 0.548295C57.6406 0.548295 58.1009 0.730113 58.4815 1.09375C58.8679 1.4517 59.0611 1.88068 59.0611 2.38068C59.0611 2.88636 58.8679 3.32102 58.4815 3.68466C58.1009 4.04261 57.6406 4.22159 57.1009 4.22159ZM61.8161 23.9091V5.90909H65.3956V8.10795H65.5575C65.7166 7.75568 65.9467 7.39773 66.2479 7.03409C66.5547 6.66477 66.9524 6.35795 67.4411 6.11364C67.9354 5.86364 68.549 5.73864 69.282 5.73864C70.2365 5.73864 71.1172 5.98864 71.924 6.48864C72.7308 6.98295 73.3757 7.73011 73.8587 8.73011C74.3416 9.72443 74.5831 10.9716 74.5831 12.4716C74.5831 13.9318 74.3473 15.1648 73.8757 16.1705C73.4098 17.1705 72.7734 17.929 71.9666 18.446C71.1655 18.9574 70.2678 19.2131 69.2734 19.2131C68.5689 19.2131 67.9695 19.0966 67.4751 18.8636C66.9865 18.6307 66.5859 18.3381 66.2734 17.9858C65.9609 17.6278 65.7223 17.267 65.5575 16.9034H65.4467V23.9091H61.8161ZM65.37 12.4545C65.37 13.233 65.478 13.9119 65.6939 14.4915C65.9098 15.071 66.2223 15.5227 66.6314 15.8466C67.0405 16.1648 67.5376 16.3239 68.1229 16.3239C68.7138 16.3239 69.2138 16.1619 69.6229 15.8381C70.032 15.5085 70.3416 15.054 70.5518 14.4744C70.7678 13.8892 70.8757 13.2159 70.8757 12.4545C70.8757 11.6989 70.7706 11.0341 70.5604 10.4602C70.3501 9.88636 70.0405 9.4375 69.6314 9.11364C69.2223 8.78977 68.7195 8.62784 68.1229 8.62784C67.532 8.62784 67.032 8.78409 66.6229 9.09659C66.2195 9.40909 65.9098 9.85227 65.6939 10.4261C65.478 11 65.37 11.6761 65.37 12.4545ZM82.9695 19.2557C81.6229 19.2557 80.4638 18.983 79.4922 18.4375C78.5263 17.8864 77.782 17.108 77.2592 16.1023C76.7365 15.0909 76.4751 13.8949 76.4751 12.5142C76.4751 11.1676 76.7365 9.9858 77.2592 8.96875C77.782 7.9517 78.5178 7.15909 79.4666 6.59091C80.4212 6.02273 81.5405 5.73864 82.8246 5.73864C83.6882 5.73864 84.4922 5.87784 85.2365 6.15625C85.9865 6.42898 86.6399 6.84091 87.1967 7.39205C87.7592 7.94318 88.1967 8.63636 88.5092 9.47159C88.8217 10.3011 88.978 11.2727 88.978 12.3864V13.3835H77.924V11.1335H85.5604C85.5604 10.6108 85.4467 10.1477 85.2195 9.74432C84.9922 9.34091 84.6768 9.02557 84.2734 8.7983C83.8757 8.56534 83.4126 8.44886 82.8842 8.44886C82.3331 8.44886 81.8445 8.5767 81.4183 8.83239C80.9979 9.08239 80.6683 9.42045 80.4297 9.84659C80.1911 10.267 80.0689 10.7358 80.0632 11.2528V13.392C80.0632 14.0398 80.1825 14.5994 80.4212 15.071C80.6655 15.5426 81.0092 15.9062 81.4524 16.1619C81.8956 16.4176 82.4212 16.5455 83.0291 16.5455C83.4325 16.5455 83.8018 16.4886 84.1371 16.375C84.4723 16.2614 84.7592 16.0909 84.9979 15.8636C85.2365 15.6364 85.4183 15.358 85.5433 15.0284L88.9013 15.25C88.7308 16.0568 88.3814 16.7614 87.853 17.3636C87.3303 17.9602 86.6541 18.4261 85.8246 18.7614C85.0007 19.0909 84.049 19.2557 82.9695 19.2557ZM109.609 13.5199L97.6094 18.804V15.3523L105.825 12.054L105.714 12.233V11.8068L105.825 11.9858L97.6094 8.6875V5.23579L109.609 10.5199V13.5199Z" fill="black"/>
</svg>
